<svg width="26" height="26" viewBox="0 0 26 26" fill="none" xmlns="http://www.w3.org/2000/svg">
<path fill-rule="evenodd" clip-rule="evenodd" d="M10.5218 0.0399754C12.2625 1.39223 14.0044 2.74295 15.7474 4.09215C15.7874 4.12307 15.8422 4.14254 15.8434 4.20668C15.8297 4.23302 15.8171 4.25822 15.8045 4.28456C15.0735 5.81167 14.3421 7.34107 13.6103 8.87275C13.5589 8.98041 13.5315 9.04684 13.3956 8.94033C11.6967 7.61862 9.9952 6.30034 8.29101 4.98551C8.04315 4.79309 8.08313 4.8515 8.2042 4.59953C8.92152 3.10144 9.63921 1.6022 10.3573 0.101823C10.395 0.0239409 10.4098 -0.0470696 10.5218 0.0399754ZM7.58055 5.96591L7.67878 6.04264L11.7828 9.21406C12.1254 9.47978 12.4613 9.75924 12.8176 10.0089C12.9753 10.1235 12.9753 10.2071 12.8999 10.3628C12.5332 11.1142 12.1768 11.8701 11.8159 12.6248C11.0582 14.2023 10.3009 15.7833 9.54403 17.3677C8.74676 19.033 7.9472 20.6979 7.14536 22.3624C6.59329 23.5146 6.0435 24.6676 5.496 25.8213C5.43203 25.9565 5.39206 25.9977 5.24699 25.8855C3.53975 24.5554 1.82642 23.2314 0.107 21.9135C0.0820618 21.9015 0.06006 21.8841 0.0425557 21.8627C0.0250514 21.8412 0.0124737 21.8161 0.00571494 21.7892C-0.00104379 21.7624 -0.00181801 21.7343 0.00344744 21.7071C0.00871289 21.6799 0.0198889 21.6541 0.0361824 21.6317C0.712377 20.2359 1.38362 18.8375 2.04992 17.4364L5.58509 10.0662C6.21864 8.74066 6.8541 7.41551 7.49146 6.09075C7.51202 6.04493 7.52344 5.98881 7.58055 5.96591ZM16.8931 6.41488L26 26C25.687 25.8374 25.414 25.6965 25.141 25.5522L20.1244 22.8939L13.6663 19.4728C12.8987 19.0666 12.1308 18.6619 11.3624 18.2587C11.2631 18.206 11.2482 18.1694 11.2996 18.0663C12.5941 15.3633 13.8852 12.6596 15.1729 9.95509C15.712 8.82579 16.253 7.69688 16.796 6.56835C16.814 6.50938 16.8476 6.45637 16.8931 6.41488Z" fill="url(#paint0_linear_6346_1095)"/>
<defs>
<linearGradient id="paint0_linear_6346_1095" x1="2.88145" y1="5.05423" x2="19.3174" y2="30.7607" gradientUnits="userSpaceOnUse">
<stop stop-color="#59AFE8"/>
<stop offset="0.87" stop-color="#646CE7"/>
</linearGradient>
</defs>
</svg>
